<svg xmlns="http://www.w3.org/2000/svg" xmlns:xlink="http://www.w3.org/1999/xlink" fill="none" version="1.1" width="16" height="16" viewBox="15 12 16 16"><g style="mix-blend-mode:passthrough"><g style="mix-blend-mode:passthrough"></g><g style="mix-blend-mode:passthrough"><g style="mix-blend-mode:passthrough"></g><g style="mix-blend-mode:passthrough"><path d="M27.7578,19.89062C27.4857,19.89062,27.2656,20.11074,27.2656,20.38281C27.2656,20.40195,27.267,20.41973,27.2684,20.4375L27.2656,20.4375L27.2656,25.1406L17.859375,25.1406L17.859375,15.734375L23,15.734375C23.27207,15.734375,23.49219,15.514258,23.49219,15.242188C23.49219,14.970117,23.27207,14.75,23,14.75L17.859375,14.75C17.315234,14.75,16.875,15.190234,16.875,15.734375L16.875,25.1406C16.875,25.6848,17.315234,26.125,17.859375,26.125L27.2656,26.125C27.8098,26.125,28.25,25.6848,28.25,25.1406L28.25,20.4375L28.2473,20.4375C28.2486,20.41973,28.25,20.40195,28.25,20.38281C28.25,20.11074,28.029899999999998,19.89062,27.7578,19.89062Z" fill="#FFFFFF" fill-opacity="1"/></g><g style="mix-blend-mode:passthrough"><path d="M28.624611716003418,13.287109196754455L29.708791716003418,14.371288196754456C30.09297171600342,14.755468196754455,30.090231716003416,15.381638196754455,29.70605171600342,15.765818196754456L24.27558171600342,21.196288196754455C24.23457171600342,21.235938196754454,24.188081716003417,21.267388196754453,24.13613171600342,21.289258196754453L20.91640671600342,22.652348196754456C20.734570716003418,22.728908196754453,20.551366716003418,22.675588196754454,20.43515671600342,22.558008196754457C20.31894531600342,22.440428196754453,20.26562501600342,22.258598196754456,20.342187516003417,22.078128196754456L21.706641716003418,18.859768196754455C21.728511716003418,18.807808196754458,21.759961716003417,18.759958196754454,21.79961171600342,18.720308196754456L27.23008171600342,13.289844196754455C27.61426171600342,12.905664096754455,28.240431716003418,12.902929696754455,28.624611716003418,13.287109196754455ZM29.008831716003417,15.068548196754456L28.161171716003416,15.916208196754456L27.078361716003418,14.833398196754455L27.92602171600342,13.985738196754456L27.92875171600342,13.983004196754456L29.011571716003417,15.065818196754456L29.008831716003417,15.068548196754456ZM23.65341171600342,20.423798196754454L21.774901716003416,21.219498196754458L22.570601716003416,19.340988196754456L26.382321716003418,15.529268196754455L27.46513171600342,16.612078196754457L23.65341171600342,20.423798196754454Z" fill-rule="evenodd" fill="#FFFFFF" fill-opacity="1"/></g></g></g></svg>