<svg xmlns="http://www.w3.org/2000/svg" xmlns:xlink="http://www.w3.org/1999/xlink" fill="none" version="1.1" width="16" height="16" viewBox="0 0 16 16"><defs><clipPath id="master_svg0_1913_44429"><rect x="0" y="0" width="16" height="16" rx="0"/></clipPath></defs><g clip-path="url(#master_svg0_1913_44429)"><g><path d="M13.95771015625,3.47862529296875L3.44158015625,3.47862529296875L3.20558015625,1.85467529296875L1.09476615625,1.85467529296875C0.82575715625,1.85467529296875,0.60791015625,2.07417329296875,0.60791015625,2.34153129296875C0.60791015625,2.61054029296875,0.82575715625,2.82838729296875,1.09476615625,2.82838729296875L2.36389015625,2.82838729296875L2.59329015625,4.40943529296875C2.59824015625,4.445735292968751,2.60815015625,4.480395292968749,2.62135015625,4.51340529296875L3.23198015625,10.62798529296875C3.23198015625,10.98611529296875,3.52245015625,11.27822529296875,3.88222015625,11.27822529296875L13.30741015625,11.27822529296875C13.66721015625,11.27822529296875,13.95771015625,10.98776529296875,13.95771015625,10.62798529296875L14.60791015625,4.127215292968749C14.60791015625,3.76909529296875,14.31581015625,3.47862529296875,13.95771015625,3.47862529296875ZM13.00871015625,10.30451529296875L4.1792901562499996,10.30451529296875L3.59506015625,4.4539952929687505L13.59461015625,4.4539952929687505L13.00871015625,10.30451529296875ZM6.15312015625,11.93177529296875C5.25697015625,11.93177529296875,4.53081015625,12.65957529296875,4.53081015625,13.55737529296875C4.53081015625,14.45517529296875,5.25697015625,15.18137529296875,6.15312015625,15.18137529296875C7.04926015625,15.18137529296875,7.77542015625,14.45347529296875,7.77542015625,13.55737529296875C7.77542015625,12.65957529296875,7.04926015625,11.93177529296875,6.15312015625,11.93177529296875ZM6.15312015625,14.20597529296875C5.79664015625,14.20597529296875,5.50618015625,13.91387529296875,5.50618015625,13.55567529296875C5.50618015625,13.19757529296875,5.79664015625,12.90547529296875,6.15312015625,12.90547529296875C6.51125015625,12.90547529296875,6.80171015625,13.19757529296875,6.80171015625,13.55567529296875C6.80171015625,13.91387529296875,6.51125015625,14.20597529296875,6.15312015625,14.20597529296875ZM11.02831015625,11.93177529296875C10.13213015625,11.93177529296875,9.40598015625,12.65957529296875,9.40598015625,13.55737529296875C9.40598015625,14.45517529296875,10.13213015625,15.18137529296875,11.02831015625,15.18137529296875C11.92441015625,15.18137529296875,12.65061015625,14.45347529296875,12.65061015625,13.55737529296875C12.65061015625,12.65957529296875,11.92441015625,11.93177529296875,11.02831015625,11.93177529296875ZM11.02831015625,14.20597529296875C10.67181015625,14.20597529296875,10.38134015625,13.91387529296875,10.38134015625,13.55567529296875C10.38134015625,13.19757529296875,10.67181015625,12.90547529296875,11.02831015625,12.90547529296875C11.38641015625,12.90547529296875,11.67691015625,13.19757529296875,11.67691015625,13.55567529296875C11.67521015625,13.91387529296875,11.38641015625,14.20597529296875,11.02831015625,14.20597529296875Z" fill="#B8BDC3" fill-opacity="1"/></g></g></svg>