<?xml version="1.0" standalone="no"?><!DOCTYPE svg PUBLIC "-//W3C//DTD SVG 1.1//EN" "http://www.w3.org/Graphics/SVG/1.1/DTD/svg11.dtd"><svg class="icon" width="200px" height="200.00px" viewBox="0 0 1024 1024" version="1.1" xmlns="http://www.w3.org/2000/svg"><path fill="#000000" d="M918.429 328l13.856 24c8.837 15.305 3.594 34.876-11.711 43.712A32 32 0 0 1 904.573 400H72a8 8 0 0 1-8-8v-56a8 8 0 0 1 8-8h763.289l-106.24-184.003a16 16 0 0 1 0-16l30.023-51.998a8 8 0 0 1 13.856 0L918.428 328zM105.57 696l-13.856-24c-8.837-15.305-3.594-34.876 11.711-43.712A32 32 0 0 1 119.427 624H952a8 8 0 0 1 8 8v56a8 8 0 0 1-8 8H188.711l106.24 184.003a16 16 0 0 1 0 16l-30.023 51.998a8 8 0 0 1-13.856 0L105.572 696z"  /></svg>