<svg xmlns="http://www.w3.org/2000/svg" xmlns:xlink="http://www.w3.org/1999/xlink" fill="none" version="1.1" width="16" height="16" viewBox="0 0 16 16"><defs><clipPath id="master_svg0_1913_44500"><rect x="0" y="0" width="16" height="16" rx="0"/></clipPath></defs><g clip-path="url(#master_svg0_1913_44500)"><g><path d="M7.1664,1.8604954824218751C7.65121,1.463127382421875,8.34909,1.463127382421875,8.8339,1.8604954824218751L14.5669,6.554249482421875C14.7804,6.729239482421875,14.8117,7.044109482421875,14.6368,7.257679482421875C14.4619,7.471259482421875,14.1471,7.502729482421875,13.9334,7.327999482421875L8.2004,2.634249482421875C8.084050000000001,2.538552482421875,7.91625,2.538552482421875,7.7999,2.634249482421875L2.066901,7.327999482421875C1.8532440000000001,7.503049482421875,1.538122,7.471699482421875,1.363143,7.257979482421875C1.188164,7.044259482421875,1.2196238,6.729149482421875,1.433401,6.554249482421875L7.1664,1.8604954824218751ZM4.75515,6.487249482421875C4.75515,6.062249482421875,5.0989,5.712749482421875,5.52815,5.712749482421875L7.0289,5.712749482421875C7.45619,5.713159482421875,7.8022,6.059959482421875,7.80165,6.487249482421875L7.80165,7.995749482421875C7.80165,8.420749482421876,7.45815,8.769999482421875,7.0289,8.769999482421875L5.52765,8.769999482421875C5.10036,8.769719482421875,4.754239999999999,8.423039482421874,4.75465,7.995749482421875L4.75465,6.487499482421875L4.75515,6.487249482421875ZM5.75515,6.712749482421875L5.75515,7.770249482421875L6.80165,7.770249482421875L6.80165,6.712749482421875L5.75515,6.712749482421875ZM3.20865,7.290249482421875C3.48479,7.290249482421875,3.70865,7.514099482421875,3.70865,7.790249482421875L3.70865,12.590269482421874C3.70865,12.922769482421876,3.97615,13.187469482421875,4.30015,13.187469482421875L11.6677,13.187469482421875C11.9958,13.185869482421875,12.2606,12.918469482421875,12.2589,12.590269482421874L12.2589,7.790249482421875C12.2589,7.514099482421875,12.4828,7.290249482421875,12.7589,7.290249482421875C13.035,7.290249482421875,13.2589,7.514099482421875,13.2589,7.790249482421875L13.2589,12.590269482421874C13.2589,13.469969482421876,12.5489,14.187469482421875,11.6674,14.187469482421875L4.30015,14.187469482421875C3.4189,14.187469482421875,2.70865,13.469969482421876,2.70865,12.590269482421874L2.70865,7.790249482421875C2.70865,7.514099482421875,2.9325099999999997,7.290249482421875,3.20865,7.290249482421875ZM4.75515,9.915999482421874C4.75515,9.490749482421876,5.0989,9.141499482421874,5.52815,9.141499482421874L7.0289,9.141499482421874C7.45619,9.141909482421875,7.8022,9.488709482421875,7.80165,9.915999482421874L7.80165,11.424499482421876C7.80165,11.849469482421876,7.45815,12.198769482421875,7.0289,12.198769482421875L5.52765,12.198769482421875C5.10036,12.198469482421874,4.754239999999999,11.851769482421876,4.75465,11.424499482421876L4.75465,9.915999482421874L4.75515,9.915999482421874ZM5.75515,10.141499482421874L5.75515,11.198999482421875L6.80165,11.198999482421875L6.80165,10.141499482421874L5.75515,10.141499482421874ZM8.1659,9.915999482421874C8.1659,9.490749482421876,8.5094,9.141499482421874,8.9389,9.141499482421874L10.43965,9.141499482421874C10.86694,9.141909482421875,11.21295,9.488709482421875,11.2124,9.915999482421874L11.2124,11.424499482421876C11.2124,11.849469482421876,10.8689,12.198769482421875,10.43965,12.198769482421875L8.9389,12.198769482421875C8.511610000000001,12.198469482421874,8.16549,11.851769482421876,8.1659,11.424499482421876L8.1659,9.915999482421874ZM9.1659,10.141499482421874L9.1659,11.198999482421875L10.2124,11.198999482421875L10.2124,10.141499482421874L9.1659,10.141499482421874Z" fill="#FFFFFF" fill-opacity="1"/></g></g></svg>